<?xml version="1.0" encoding="iso-8859-1"?>
<!-- Generator: Adobe Illustrator 19.0.0, SVG Export Plug-In . SVG Version: 6.00 Build 0)  -->
<svg version="1.1" id="Capa_1" xmlns="http://www.w3.org/2000/svg" xmlns:xlink="http://www.w3.org/1999/xlink" x="0px" y="0px"
	 viewBox="0 0 512 512" style="enable-background:new 0 0 512 512;" xml:space="preserve">
<g>
	<g>
		<g>
			<path d="M256,201.143c-0.012,10.094-8.192,18.274-18.286,18.286h-73.143c-10.094-0.012-18.274-8.192-18.286-18.286v-18.286
				h-45.714v54.857h201.143v-54.857H256V201.143z"/>
			<rect x="164.571" y="182.857" width="73.143" height="18.286"/>
			<rect x="100.571" y="109.714" width="201.143" height="54.857"/>
			<path d="M100.571,475.442l201.143-0.013V256H100.571V475.442z M207.545,408.777c-0.421,0.409-0.882,0.775-1.375,1.094
				c-0.466,0.363-0.992,0.643-1.554,0.826c-0.547,0.276-1.135,0.461-1.741,0.549c-0.572,0.105-1.151,0.166-1.732,0.183
				c-3.697-0.015-7.024-2.245-8.442-5.66s-0.649-7.346,1.951-9.975c2.188-2.091,5.245-3.009,8.223-2.469
				c0.606,0.084,1.195,0.268,1.741,0.545c0.562,0.183,1.087,0.463,1.554,0.826c0.513,0.292,0.977,0.662,1.375,1.098
				c1.752,1.705,2.741,4.046,2.741,6.491C210.285,404.731,209.297,407.072,207.545,408.777L207.545,408.777z M201.143,274.286
				c25.247,0,45.714,20.467,45.714,45.714s-20.467,45.714-45.714,45.714c-25.247,0-45.714-20.467-45.714-45.714
				C155.458,294.765,175.908,274.315,201.143,274.286z"/>
			<rect x="100.571" y="36.571" width="201.143" height="54.857"/>
			<path d="M320,0H82.286C72.192,0.012,64.012,8.192,64,18.286v475.429c0.012,10.094,8.192,18.274,18.286,18.286H320
				c10.094-0.012,18.274-8.192,18.286-18.286V18.286C338.274,8.192,330.094,0.012,320,0z M320,475.429
				c-0.012,10.094-8.192,18.274-18.286,18.286H100.571c-10.094-0.012-18.274-8.192-18.286-18.286V36.571
				c0.012-10.094,8.192-18.274,18.286-18.286h201.143c10.094,0.012,18.274,8.192,18.286,18.286V475.429z"/>
			<circle cx="201.143" cy="320" r="27.429"/>
			<path d="M429.714,0h-78.23c3.294,5.533,5.05,11.846,5.087,18.286v475.429c-0.037,6.44-1.793,12.752-5.087,18.286h78.23
				c10.094-0.012,18.274-8.192,18.286-18.286V18.286C447.988,8.192,439.808,0.012,429.714,0z"/>
		</g>
	</g>
</g>
<g>
</g>
<g>
</g>
<g>
</g>
<g>
</g>
<g>
</g>
<g>
</g>
<g>
</g>
<g>
</g>
<g>
</g>
<g>
</g>
<g>
</g>
<g>
</g>
<g>
</g>
<g>
</g>
<g>
</g>
</svg>
