<?xml version="1.0" encoding="iso-8859-1"?>
<!-- Generator: Adobe Illustrator 19.0.0, SVG Export Plug-In . SVG Version: 6.00 Build 0)  -->
<svg version="1.1" id="Capa_1" xmlns="http://www.w3.org/2000/svg" xmlns:xlink="http://www.w3.org/1999/xlink" x="0px" y="0px"
	 viewBox="0 0 512 512" style="enable-background:new 0 0 512 512;" xml:space="preserve">
<g>
	<g>
		<g>
			<path d="M79.338,278.551c16.928-25.492,45.49-40.821,76.091-40.836c0.852,0,1.677,0.104,2.523,0.128
				c-1.343-6.44-3.814-12.592-7.301-18.171c-38.372,1.667-73.081,23.27-91.52,56.962C65.922,276.374,72.717,277.018,79.338,278.551z
				"/>
			<path d="M97.519,284.635c11.174,5.228,21.521,12.065,30.711,20.295c5.618-6.334,13.272-10.507,21.64-11.797
				c5.302-11.658,8.489-24.165,9.413-36.938c-1.285-0.067-2.554-0.195-3.855-0.195C132.722,256.018,111.317,266.602,97.519,284.635z
				"/>
			<circle cx="155.429" cy="329.143" r="18.286"/>
			<path d="M155.429,365.714c-6.716-0.027-13.292-1.921-18.993-5.471c-11.575,5.462-22.065,12.976-30.962,22.177
				c17.532,16.61,42.185,23.397,65.747,18.1c-5.224-11.2-8.777-23.106-10.545-35.337
				C158.942,365.489,157.188,365.666,155.429,365.714z"/>
			<path d="M70.499,295.49c-6.557-0.933-13.228-0.702-19.705,0.683c-11.583,36.639-3.057,76.669,22.45,105.408
				c2.09-6.443,5.017-12.583,8.705-18.264C63.107,358.029,58.77,324.763,70.499,295.49z"/>
			<polygon points="70.499,295.49 70.499,295.49 70.499,295.49 			"/>
			<path d="M181.222,416.806c-30.246,8.999-62.995,1.629-86.47-19.459c-3.098,5.823-5.151,12.143-6.068,18.675
				c30.381,23.582,70.96,29.358,106.714,15.189C190.059,427.054,185.293,422.211,181.222,416.806z"/>
			<path d="M265.008,326.476c-5.743,3.641-11.947,6.499-18.446,8.499c-2.006,31.395-20,59.559-47.645,74.573
				c4.382,4.874,9.578,8.948,15.357,12.041c31.646-20.093,50.832-54.96,50.87-92.446
				C265.143,328.243,265.03,327.371,265.008,326.476z"/>
			<path d="M123.392,346.414c-2.934-5.286-4.493-11.225-4.535-17.271c0-2.464,0.248-4.923,0.742-7.337
				c-9.141-8.911-19.788-16.133-31.448-21.331c-9.492,22.185-7.368,47.632,5.671,67.936
				C102.533,359.652,112.499,352.238,123.392,346.414z"/>
			<path d="M482.634,20.777C479.589,8.559,468.61-0.012,456.018,0H55.982C43.39-0.012,32.411,8.559,29.366,20.777L2.563,128h506.874
				L482.634,20.777z M256,100.571c-36.482,0-64-15.723-64-36.571s27.518-36.571,64-36.571S320,43.152,320,64
				S292.482,100.571,256,100.571z"/>
			<circle cx="45.714" cy="192" r="9.143"/>
			<ellipse cx="256" cy="64" rx="45.714" ry="18.286"/>
			<path d="M189.936,317.539c12.413,3.224,25.305,4.189,38.06,2.849c-3.465-28.421-23.162-52.223-50.433-60.944
				c-1.094,12.289-4.021,24.344-8.685,35.766C178.833,299.204,186.531,307.368,189.936,317.539z"/>
			<circle cx="45.714" cy="466.286" r="9.143"/>
			<path d="M191.238,336.562c-1.784,8.339-6.433,15.789-13.141,21.054c1.269,12.745,4.797,25.163,10.419,36.672
				c21.457-10.926,36.171-31.702,39.355-55.569c-3.608,0.35-7.174,0.576-10.603,0.576
				C208.522,339.26,199.801,338.344,191.238,336.562z"/>
			<path d="M245.777,315.845c6.138-2.488,11.789-6.041,16.692-10.494c-9.904-44.141-45.851-77.698-90.568-84.548
				c2.58,6.276,4.311,12.868,5.147,19.602C213.152,249.263,240.312,279.076,245.777,315.845z"/>
			<circle cx="265.143" cy="192" r="9.143"/>
			<path d="M457.143,219.429H347.429c-5.047,0.005-9.138,4.095-9.143,9.143v57.237c0.003,2.18,0.782,4.288,2.196,5.946
				l21.473,25.054c1.737,2.029,4.275,3.196,6.946,3.192h66.768c2.669,0.005,5.205-1.162,6.938-3.192l21.482-25.054
				c1.414-1.659,2.193-3.766,2.196-5.946v-57.237C466.281,223.524,462.19,219.434,457.143,219.429z M374.857,283.429
				c0,5.049-4.093,9.143-9.143,9.143s-9.143-4.093-9.143-9.143v-9.143c0-5.049,4.093-9.143,9.143-9.143s9.143,4.093,9.143,9.143
				V283.429z M411.429,256c0,5.049-4.093,9.143-9.143,9.143c-5.049,0-9.143-4.093-9.143-9.143v-9.143
				c0-5.049,4.093-9.143,9.143-9.143c5.049,0,9.143,4.093,9.143,9.143V256z M448,283.429c0,5.049-4.093,9.143-9.143,9.143
				c-5.049,0-9.143-4.093-9.143-9.143v-9.143c0-5.049,4.093-9.143,9.143-9.143c5.049,0,9.143,4.093,9.143,9.143V283.429z"/>
			<path d="M338.286,384v54.857c0.005,5.047,4.096,9.138,9.143,9.143h45.714v-73.143h-45.714
				C342.381,374.862,338.291,378.953,338.286,384z M356.571,402.286c0-5.049,4.093-9.143,9.143-9.143s9.143,4.093,9.143,9.143
				v18.286c0,5.049-4.093,9.143-9.143,9.143s-9.143-4.093-9.143-9.143V402.286z"/>
			<path d="M457.143,374.857h-45.714V448h45.714c5.047-0.005,9.138-4.095,9.143-9.143V384
				C466.281,378.953,462.19,374.862,457.143,374.857z M447.268,414.902c-0.464,1.108-1.113,2.129-1.92,3.018
				c-3.605,3.536-9.377,3.536-12.982,0c-0.807-0.889-1.456-1.91-1.92-3.018c-0.514-1.084-0.765-2.274-0.731-3.473
				c0.032-2.421,0.979-4.74,2.651-6.491c0.432-0.394,0.888-0.761,1.366-1.098c0.512-0.347,1.067-0.625,1.652-0.826
				c0.517-0.263,1.071-0.447,1.643-0.544c1.205-0.277,2.456-0.277,3.661,0c0.571,0.099,1.125,0.283,1.643,0.545
				c0.582,0.201,1.135,0.479,1.643,0.826c0.481,0.337,0.94,0.704,1.375,1.098c1.669,1.753,2.616,4.071,2.651,6.491
				C447.985,412.623,447.737,413.803,447.268,414.902z"/>
			<circle cx="265.143" cy="466.286" r="9.143"/>
			<path d="M0,146.286v347.429C0.012,503.808,8.192,511.988,18.286,512h475.429c10.094-0.012,18.274-8.192,18.286-18.286V146.286H0z
				 M45.714,164.571c15.148,0,27.429,12.28,27.429,27.429s-12.28,27.429-27.429,27.429S18.286,207.148,18.286,192
				C18.302,176.858,30.573,164.588,45.714,164.571z M45.714,493.714c-15.148,0-27.429-12.28-27.429-27.429
				c0-15.148,12.28-27.429,27.429-27.429s27.429,12.28,27.429,27.429C73.126,481.427,60.856,493.698,45.714,493.714z
				 M218.238,440.549c-46.418,26.34-104.335,20.951-145.096-13.501c-0.34-0.267-0.661-0.558-0.959-0.871
				c-40.448-34.382-55.249-90.291-37.11-140.182c0.169-0.728,0.427-1.433,0.77-2.098c20.366-54.059,74.46-87.737,131.958-82.155
				s104.104,49.037,113.691,106.003c0.014,0.182,0.078,0.352,0.082,0.534c9.11,52.572-15.758,105.205-62.154,131.551
				C219.045,440.1,218.65,440.341,218.238,440.549z M265.143,493.714c-15.148,0-27.429-12.28-27.429-27.429
				c0-15.148,12.28-27.429,27.429-27.429s27.429,12.28,27.429,27.429C292.555,481.427,280.284,493.698,265.143,493.714z
				 M265.143,219.429c-15.148,0-27.429-12.28-27.429-27.429s12.28-27.429,27.429-27.429s27.429,12.28,27.429,27.429
				C292.555,207.142,280.284,219.412,265.143,219.429z M484.571,438.857c-0.017,15.142-12.287,27.412-27.429,27.429H347.429
				c-15.142-0.016-27.412-12.287-27.429-27.429V384c0.017-15.142,12.287-27.412,27.429-27.429h109.714
				c15.142,0.016,27.412,12.287,27.429,27.429V438.857z M484.571,285.808c-0.003,6.547-2.347,12.877-6.607,17.848L456.5,328.71
				c-5.212,6.081-12.822,9.579-20.83,9.576h-66.768c-8.009,0.003-15.618-3.495-20.83-9.576l-21.464-25.054
				c-4.261-4.971-6.604-11.301-6.607-17.848v-57.237c0.017-15.141,12.287-27.412,27.429-27.429h109.714
				c15.142,0.017,27.412,12.287,27.429,27.429V285.808z"/>
		</g>
	</g>
</g>
<g>
</g>
<g>
</g>
<g>
</g>
<g>
</g>
<g>
</g>
<g>
</g>
<g>
</g>
<g>
</g>
<g>
</g>
<g>
</g>
<g>
</g>
<g>
</g>
<g>
</g>
<g>
</g>
<g>
</g>
</svg>
